<svg xmlns="http://www.w3.org/2000/svg" viewBox="0 0 36.59 49.09"><defs><style>.cls-1{fill:#9fd2be;fill-rule:evenodd;}</style></defs><g id="Слой_2" data-name="Слой 2"><g id="Layer_1" data-name="Layer 1"><path class="cls-1" d="M30.12,5.38a22.44,22.44,0,0,0-8.58,9.49c-.1.3-.2.81,0,.81,21.5-7.07,19,26.24-1.31,21.9-.51,5.35-1.21,7.77-2.73,11.1a.84.84,0,0,1-.6.41.47.47,0,0,1-.31-.51c.61-3.53,1.21-7.17-1.51-11.2-2-2.93-9.69-1.92-12.32-4.85-7.16-8.38.61-22,11.81-16-1.11-4-2.12-10.19.11-16a.76.76,0,0,1,.2-.4c.3-.3.91,0,1.31.1.91.3,1.41.81,2.32,1.11.51.61-.4,1.11-.3,2,.7-.91,1.11-2.12,1.81-3.13a6.3,6.3,0,0,1,3.34,2.32c-.61,1.62-1.52,2.93-2,4.65A22.51,22.51,0,0,1,28,2.05,7,7,0,0,1,30.12,5.38Z"/></g></g></svg>